# xmcd
#
# Track frame offsets: 
#        150
#        11200
#        22812
#        35610
#        47252
#        60230
#        73507
#        84460
#        94830
#        108887
#        119762
#        129167
#        142697
#        156580
#        169380
#        183575
#        196185
#        211097
#        225050
#        235992
#
# Disc length: 3315 seconds
#
# Revision: 1
# Processed by: cddbd v1.5.2PL0 Copyright (c) Steve Scherf et al.
# Submitted via: ExactAudioCopy v0.99pb5
#
DISCID=fb0cf114
DTITLE=Petardeo - De Marisol a Pepa Flores CD 1
DYEAR=1999
DGENRE=Country
TTITLE0=Tómbola
TTITLE1=Corre, corre caballito
TTITLE2=Estando contigo
TTITLE3=Muchachita
TTITLE4=Me conformo
TTITLE5=Mi pequeña estrella
TTITLE6=El cochecito
TTITLE7=Yo a ti también
TTITLE8=Cabriola
TTITLE9=Ya no me importas nada
TTITLE10=Dos unidos
TTITLE11=Corazón contento
TTITLE12=No me quiero casar
TTITLE13=¡Que bella fiesta!
TTITLE14=Aquel verano
TTITLE15=Muchachita Mary
TTITLE16=Tu forma de amar
TTITLE17=Mamy Panchita
TTITLE18=Desde que tú no estás
TTITLE19=Ni una paloma...
EXTD=YEAR: 1999
EXTT0=
EXTT1=
EXTT2=
EXTT3=
EXTT4=
EXTT5=
EXTT6=
EXTT7=
EXTT8=
EXTT9=
EXTT10=
EXTT11=
EXTT12=
EXTT13=
EXTT14=
EXTT15=
EXTT16=
EXTT17=
EXTT18=
EXTT19=
PLAYORDER=
